<svg xmlns="http://www.w3.org/2000/svg" width="512" height="512" xmlns:v="https://vecta.io/nano"><rect width="442.878" height="442.878" x="34.561" y="34.561" rx="50" fill="#fce94f" stroke="#000" stroke-width=".865"/><path d="M159.816 130.669c7.8-4.504 10.488-14.533 5.984-22.334-4.514-7.819-14.533-10.488-22.334-5.984a16.36 16.36 0 0 0-6.003 22.344c4.533 7.808 14.515 10.499 22.352 5.974zm194.483 66.94l20.756-54.079 36.449 45.032 36.46 45.05-29.895 4.74c15.915 73.498-16.304 151.989-84.973 191.636s-152.754 28.303-208.485-22.207l-19.033 23.509-20.766-54.111-20.774-54.082 57.23 9.053 57.204 9.093-22.764 28.103c34.32 32.508 84.483 43.793 129.828 28.334L184.929 223.429l-68.503 39.55-22.582-39.113 68.503-39.55-5.571-9.649c-21.917 1.908-43.954-8.684-55.661-28.961-16.125-27.93-6.563-63.617 21.348-79.732s63.599-6.552 79.714 21.359c11.718 20.296 9.873 44.676-2.75 62.685l5.571 9.649 64.936-37.491 22.582 39.113-64.936 37.491 100.701 174.419c36.505-31.452 52.061-80.877 40.993-127.155l-35.72 5.663z"/></svg>